HIERARCHY
ROOT Hips
{
  OFFSET -115.816 99.2911 83.0964
  CHANNELS 6 Xposition Yposition Zposition Zrotation Xrotation Yrotation
  JOINT RightUpLeg
  {
    OFFSET -8.9458 -8.66707 0.101652
    CHANNELS 3 Zrotation Xrotation Yrotation
    JOINT RightLeg
    {
      OFFSET 0 -44.4227 1.3727
      CHANNELS 3 Zrotation Xrotation Yrotation
      JOINT RightFoot
      {
        OFFSET 0.253549 -42.0924 -1.46059
        CHANNELS 3 Zrotation Xrotation Yrotation
        JOINT RightToes
        {
          OFFSET 0.04 -4.41509 8.4991
          CHANNELS 3 Zrotation Xrotation Yrotation
          End Site
          {
            OFFSET -0.08 -0.137448 9.77979
          }
        }
      }
    }
  }
  JOINT Spine
  {
    OFFSET 0 11.8905 0
    CHANNELS 3 Zrotation Xrotation Yrotation
    JOINT Spine1
    {
      OFFSET 0 25.6574 0.127663
      CHANNELS 3 Zrotation Xrotation Yrotation
      JOINT HEad
      {
        OFFSET 0 8.73416 0.011341
        CHANNELS 3 Zrotation Xrotation Yrotation
        End Site
        {
          OFFSET -0.29 12.7742 2.51395
        }
      }
      JOINT LeftShoulder1
      {
        OFFSET 8.99 -0.362252 -0.22
        CHANNELS 3 Zrotation Xrotation Yrotation
        JOINT LeftArm
        {
          OFFSET 10.2827 -0.00338 0.322123
          CHANNELS 3 Zrotation Xrotation Yrotation
          JOINT LeftForeArm
          {
            OFFSET 32.7669 0.099144 -1.42434
            CHANNELS 3 Zrotation Xrotation Yrotation
            JOINT LeftHand
            {
              OFFSET 27.5643 0.085362 1.02216
              CHANNELS 3 Zrotation Xrotation Yrotation
              End Site
              {
                OFFSET 16.7443 -0.6 1.50291
              }
            }
          }
        }
      }
      JOINT RightShoulder
      {
        OFFSET -8.99 -0.362252 -0.22
        CHANNELS 3 Zrotation Xrotation Yrotation
        JOINT RightArm
        {
          OFFSET -10.2827 -0.00338 0.322123
          CHANNELS 3 Zrotation Xrotation Yrotation
          JOINT RightForeArm
          {
            OFFSET -32.8971 0.099144 -1.42434
            CHANNELS 3 Zrotation Xrotation Yrotation
            JOINT RightHand
            {
              OFFSET -27.4921 0.085362 1.02216
              CHANNELS 3 Zrotation Xrotation Yrotation
              End Site
              {
                OFFSET -16.6312 -0.6 1.50291
              }
            }
          }
        }
      }
    }
  }
  JOINT LeftUpLeg
  {
    OFFSET 8.9458 -8.66707 0.101652
    CHANNELS 3 Zrotation Xrotation Yrotation
    JOINT LeftLeg
    {
      OFFSET 0 -44.4227 1.3727
      CHANNELS 3 Zrotation Xrotation Yrotation
      JOINT LeftFoot
      {
        OFFSET -0.253549 -42.0924 -1.46059
        CHANNELS 3 Zrotation Xrotation Yrotation
        JOINT LeftToes
        {
          OFFSET -0.04 -4.41509 8.4991
          CHANNELS 3 Zrotation Xrotation Yrotation
          End Site
          {
            OFFSET 0.08 -0.047448 9.77979
          }
        }
      }
    }
  }
}
MOTION
Frames:	16
Frame Time:	0.0166667
-143.428 99.9696 5.22351 -1.39196 -10.3204 7.12363 -6.70638 6.52089 2.2795 4.99642 23.9392 12.6648 24.3887 11.8854 -4.24289 -23.6569 -22.7245 -0.639629 0.30394 10.099 -0.533324 1.75085 20.1369 -1.70917 2.48251 -12.8383 29.0818 -1.98785e-016 -3.18055e-015 7.95139e-016 -58.1822 -24.8374 -13.8093 -13.5253 34.6962 -96.387 10.4902 8.34102 -13.9698 32.9878 8.12555 21.1501 32.9695 -17.6758 39.9151 22.5808 51.2104 127.176 12.8499 4.81431 -45.5083 20.711 -13.8171 -2.48712 -4.18726 35.2077 1.28247 -19.4318 21.9319 4.89355 -6.8529 -19.2817 -15.4398 
-143.78 100.65 5.12801 -1.42314 -9.88978 6.47764 -6.41877 4.96959 1.17566 3.57142 24.2002 13.4895 26.9474 17.8287 -6.07147 -28.4056 -26.9252 0.681748 -0.0705985 10.1277 -0.417907 1.73025 20.1922 -1.60185 2.12948 -13.4465 29.6632 7.95139e-016 0 -0 -56.8046 -26.0261 -12.404 -12.3795 34.7209 -97.563 11.0399 8.30881 -13.3581 31.2444 8.16313 22.414 36.0704 -24.0762 42.2301 28.751 54.4759 116.729 12.8015 5.93647 -37.1223 20.4386 -14.07 -3.83017 -4.38649 34.9425 2.45173 -18.5677 20.0775 4.37327 -6.2141 -18.218 -13.7025 
-144.12 101.054 5.01966 -1.41226 -9.75852 5.7842 -6.1057 3.6403 0.567941 2.11631 24.8398 13.837 28.7608 22.4242 -7.64076 -32.7363 -30.8751 2.23764 -0.27229 10.2852 -0.31685 1.70214 20.5257 -1.45489 1.72129 -14.3675 30.2202 -1.98785e-016 -6.36111e-015 -1.59028e-015 -55.6434 -27.6927 -11.2375 -11.8143 35.0067 -98.3281 11.5527 8.27233 -12.9093 29.0941 8.06674 23.6916 39.8053 -29.0048 45.5595 33.7141 56.1533 106.902 13.2587 6.8228 -29.2715 20.2817 -14.0415 -5.55813 -4.98091 34.6344 4.23935 -17.6447 18.7906 3.95398 -5.79396 -17.4896 -12.4336 
-144.424 101.205 4.9307 -1.36687 -9.92287 5.24247 -5.82823 2.67871 0.593024 0.98299 25.8579 13.9076 28.7133 24.1536 -8.06044 -34.79 -32.8626 3.38603 -0.206831 10.5537 -0.245657 1.68186 21.0955 -1.27512 1.26255 -15.3767 30.5687 5.96354e-016 -6.36111e-015 3.97569e-016 -54.8258 -29.5705 -10.5345 -11.9549 35.5368 -98.3418 11.9651 8.2147 -12.8615 26.7523 7.78593 24.6724 43.9295 -32.2105 49.5537 36.9735 56.6783 98.8324 14.092 7.50761 -22.7694 20.2013 -13.715 -7.32224 -5.63777 34.1063 6.10042 -16.7899 18.2021 3.67047 -5.53253 -17.0064 -11.6557 
-144.674 101.109 4.89989 -1.33018 -10.2821 5.00277 -5.65316 2.15091 1.15384 0.489001 27.07 13.7997 26.4122 22.6056 -7.03514 -33.8083 -32.0779 3.79208 0.161534 10.8796 -0.20036 1.74258 21.7889 -1.05684 0.671946 -16.2633 30.5281 -3.97569e-016 -3.18055e-015 -0 -54.4959 -31.3009 -10.4961 -12.8579 36.167 -97.3599 12.23 8.12187 -13.3793 24.4874 7.32666 25.0726 47.8945 -33.6878 53.7033 38.5503 56.3829 92.966 14.9426 8.0542 -17.8388 20.1829 -13.227 -8.83373 -6.09374 33.4048 7.59344 -15.9913 18.0077 3.46173 -5.37955 -16.709 -11.2209 
-144.882 100.735 4.96167 -1.32435 -10.6739 5.12386 -5.6666 2.07547 1.95554 0.698066 28.0727 13.4668 22.9494 18.8102 -5.33946 -30.5909 -29.1543 3.3578 0.710028 11.1848 -0.150865 1.95196 22.4438 -0.800901 -0.111499 -16.901 30.0163 0 0 -0 -54.733 -32.66 -11.2083 -14.5697 36.7435 -95.2074 12.2589 7.99412 -14.5807 22.5252 6.76546 24.8231 51.1874 -33.7385 57.5363 38.8391 55.5237 89.0876 15.3915 8.52924 -14.1061 20.2312 -12.8299 -9.89756 -6.27621 32.784 8.57279 -15.1837 17.686 3.23788 -5.29044 -16.5327 -10.9658 
-145.073 100.058 5.12765 -1.33819 -10.9503 5.55513 -5.912 2.38309 2.6826 1.34926 28.5265 12.9736 19.9168 14.5905 -3.91021 -27.157 -25.9713 2.31805 1.20841 11.4026 -0.051158 2.30007 22.9111 -0.509093 -1.08444 -17.2597 29.0939 7.95139e-016 3.18055e-015 -0 -55.4926 -33.593 -12.5885 -17.094 37.0917 -91.8249 11.8903 7.85478 -16.5918 20.9306 6.19813 24.1192 53.8002 -32.9198 60.9155 38.6583 54.4331 86.3869 15.1708 8.97708 -11.0162 20.3476 -12.723 -10.4011 -6.24257 32.4764 9.1576 -14.3239 16.8346 2.94432 -5.24268 -16.4351 -10.8382 
-145.252 99.081 5.38174 -1.40253 -11.0545 6.16164 -6.28305 2.9156 3.13507 2.04162 28.5137 12.7009 18.0666 11.0632 -3.01066 -25.2571 -24.2011 1.18488 1.59186 11.4933 0.110757 2.74596 23.108 -0.175173 -2.20783 -17.3649 27.9194 -7.95139e-016 3.18055e-015 7.95139e-016 -56.6518 -34.1582 -14.4543 -20.3259 37.0203 -87.3812 10.9513 7.77149 -19.3764 19.6419 5.69856 23.2928 56.3098 -31.8444 64.1034 39.0632 53.5828 83.7791 14.2424 9.38113 -8.32844 20.5685 -12.9815 -10.3179 -6.09298 32.6495 9.55904 -13.4361 15.3195 2.58451 -5.2299 -16.4123 -10.7882 
-145.405 97.8495 5.6893 -1.56708 -11.0576 6.80904 -6.60664 3.58081 3.31099 2.55748 28.3677 12.9617 17.2156 8.13454 -2.44932 -25.3232 -24.2159 0.331089 1.93269 11.4642 0.31652 3.25588 23.056 0.210232 -3.42625 -17.2426 26.6599 -3.97569e-016 3.18055e-015 7.95139e-016 -58.1432 -34.5034 -16.675 -23.9707 36.4241 -82.3345 9.43155 7.84106 -22.5129 18.6253 5.31447 22.6148 59.3589 -30.8452 67.4639 40.7281 53.3861 80.5984 12.76 9.64881 -6.48029 20.9352 -13.5332 -9.77004 -5.95715 33.3734 9.95602 -12.6069 13.2506 2.20255 -5.20743 -16.4029 -10.5565 
-145.506 96.4478 6.01477 -1.89313 -11.1282 7.42771 -6.74258 4.42943 3.42195 3.03503 28.2897 13.4935 16.7186 5.33173 -1.99016 -26.7349 -25.4112 -0.1702 2.35864 11.3666 0.537958 3.84939 22.8692 0.649503 -4.67491 -16.8946 25.4256 1.76556e-031 -3.18055e-015 3.18055e-015 -60.0684 -34.7986 -19.2485 -27.4937 35.3991 -77.3409 7.64843 8.08455 -25.3343 17.9702 5.07566 22.1832 62.9488 -29.7909 71.0775 43.4269 53.9061 77.1389 10.8902 9.69361 -6.38408 21.4901 -14.2226 -9.04235 -5.99571 34.6528 10.4927 -11.9237 10.9033 1.84819 -5.12862 -16.3549 -9.80669 
-145.517 94.9932 6.33753 -2.44913 -11.4366 8.01508 -6.59871 5.59285 3.7594 3.81108 28.1802 13.5469 15.8281 2.62847 -1.53267 -28.5869 -26.9629 -0.528479 2.96516 11.2676 0.753836 4.60799 22.6925 1.12637 -5.9117 -16.3182 24.2584 -7.95139e-016 -3.18055e-015 -6.36111e-015 -62.6741 -35.1501 -22.2008 -30.2626 34.2848 -73.0423 6.15831 8.37612 -27.3142 17.8469 5.00315 21.968 66.2291 -28.323 74.6183 45.9651 54.8898 74.6422 8.6873 9.55248 -8.60548 22.2707 -14.9195 -8.45993 -6.33792 36.459 11.2924 -11.4164 8.63777 1.55485 -5.04594 -16.4266 -8.46075 
-145.404 93.6063 6.65698 -3.24721 -12.0456 8.60876 -6.13029 7.12941 4.46308 5.04679 27.8314 12.5288 14.0292 0.351877 -1.10538 -30.1629 -28.2231 -1.10714 3.70572 11.2233 0.960471 5.60087 22.636 1.58989 -7.12786 -15.5506 23.1737 -0 0 3.18055e-015 -66.1537 -35.5758 -25.3985 -31.8368 33.5647 -69.9049 5.44871 8.53423 -28.2449 18.4358 5.11906 21.9082 68.0379 -26.2761 77.5872 46.7171 56.0254 74.6808 6.31112 9.38068 -12.8744 23.2546 -15.6398 -8.24113 -7.03078 38.7877 12.3815 -11.0751 6.75857 1.33689 -5.07823 -16.9204 -6.7749 
-145.161 92.3981 6.98866 -4.17044 -12.8713 9.26121 -5.37492 8.94182 5.42611 6.48617 27.1551 10.5206 11.4328 -1.32285 -0.765685 -31.0454 -28.8371 -2.01853 4.40931 11.2663 1.15634 6.77934 22.7471 1.96018 -8.28312 -14.7102 22.2093 7.95139e-016 6.36111e-015 -0 -70.355 -35.9663 -28.4101 -32.171 33.5842 -68.2117 5.7096 8.46238 -28.1671 19.834 5.43999 21.9728 67.8045 -23.883 79.6204 44.7691 57.0278 78.1337 4.33092 9.2762 -18.5717 24.3136 -16.5378 -8.39255 -8.01167 41.595 13.5603 -10.9557 5.6164 1.22013 -5.32518 -18.0568 -5.31097 
-144.808 91.4723 7.35969 -4.94087 -13.7364 10.024 -4.53039 10.8063 6.43032 7.63092 26.3002 8.15104 8.85387 -2.4845 -0.539622 -31.1902 -28.8325 -2.96279 4.88653 11.4046 1.32838 7.92263 23.0219 2.17198 -9.21731 -13.9841 21.4099 7.95139e-016 0 -0 -74.5884 -36.0353 -30.5221 -31.6186 34.2467 -68.0286 6.77304 8.20044 -27.3662 21.8682 5.93732 22.1654 65.9391 -21.5829 80.4746 40.5712 57.6407 84.6818 3.48312 9.1276 -25.383 25.201 -17.7502 -8.66688 -9.06161 44.6674 14.4041 -11.2953 5.87324 1.28333 -5.9132 -19.9849 -4.91892 
-144.358 90.891 7.8066 -5.18156 -14.4725 10.9465 -3.98633 12.444 7.34407 8.19104 25.6998 6.04526 7.24189 -3.31736 -0.419058 -30.8763 -28.4985 -3.62297 4.92826 11.6323 1.46809 8.7171 23.4301 2.22975 -9.66919 -13.54 20.7614 7.95139e-016 0 -3.18055e-015 -77.7946 -35.3883 -31.02 -30.7863 35.0092 -69.0143 8.14138 7.87616 -26.4768 24.0276 6.50058 22.4554 63.2991 -19.5845 79.8566 35.177 57.6869 93.4043 4.05519 8.68063 -33.269 25.6141 -19.2893 -8.6459 -9.85235 47.7185 14.4479 -12.5023 8.25823 1.67132 -7.00485 -22.6523 -6.45145 
-143.84 90.6727 8.33492 -4.63116 -14.9906 11.9722 -4.15977 13.6022 8.16502 8.32695 25.8173 4.5186 6.99264 -3.81444 -0.382423 -30.5045 -28.1525 -4.0467 4.49465 11.9287 1.60967 8.94748 23.9237 2.22867 -9.4321 -13.442 20.1875 2.38542e-015 3.18055e-015 -1.59028e-015 -79.0715 -33.6882 -29.6486 -30.3602 35.2418 -70.4206 9.08921 7.62831 -26.3221 25.7743 6.98318 22.7416 60.383 -17.6572 77.5037 29.1913 56.9066 103.469 5.68489 7.74168 -41.8939 25.4333 -20.9484 -7.91523 -10.0863 50.3859 13.4338 -15.049 13.0816 2.63072 -8.61667 -25.379 -10.3006 
